<svg xmlns="http://www.w3.org/2000/svg" viewBox="208.6 536.9 147.3 61.3">
  <path fill="#FFFFFF" d="M350.13,546.41 C349.19,546.20 347.31,545.75 346.37,545.51 C344.66,545.08 343.87,544.36 343.87,543.32 C343.87,542.11 345.27,541.23 347.20,541.23 C348.96,541.23 350.17,542.16 350.64,543.84 L355.28,543.84 C355.10,539.57 351.02,536.94 347.20,536.94 C342.51,536.94 339.24,539.79 339.24,543.86 C339.24,547.06 341.25,549.03 344.99,549.88 C345.87,550.08 347.62,550.58 348.50,550.78 C350.46,551.23 351.35,551.82 351.35,552.88 C351.35,554.51 349.49,555.24 347.65,555.24 C345.00,555.24 343.52,554.27 343.15,552.29 L338.50,552.29 C339.00,557.65 343.75,559.62 347.65,559.62 C352.56,559.62 355.98,556.74 355.98,552.61 C355.98,549.32 353.94,547.25 350.13,546.41"></path>
  <path fill="#FFFFFF" d="M278.35,536.94 C275.77,536.94 273.62,538.58 272.54,540.55 C272.00,539.46 270.48,536.94 266.60,536.94 C263.62,536.94 262.18,538.71 261.54,539.69 L261.54,537.48 L256.89,537.48 L256.89,559.07 L261.73,559.07 L261.73,548.49 C261.65,545.37 262.15,543.22 263.22,542.12 C263.81,541.52 264.58,541.21 265.52,541.21 C269.02,541.21 268.92,545.34 268.92,545.81 L268.92,559.07 L273.76,559.07 L273.76,547.96 C273.76,544.46 274.24,541.21 277.72,541.21 C278.97,541.21 279.95,541.77 280.53,542.92 C281.03,543.94 281.03,545.46 281.03,545.99 L281.03,559.07 L285.87,559.07 L285.87,546.08 C285.87,543.00 285.46,541.34 284.29,539.73 C282.89,537.96 280.73,536.94 278.35,536.94"></path>
  <path fill="#FFFFFF" d="M243.10,555.09 C239.48,555.09 236.85,552.24 236.85,548.23 C236.85,544.17 239.36,541.46 243.10,541.46 C246.78,541.46 249.35,544.23 249.35,548.23 C249.35,552.24 246.72,555.09 243.10,555.09 M243.10,536.93 C236.88,536.93 232.01,541.91 232.01,548.28 C232.01,554.64 236.88,559.62 243.10,559.62 C249.32,559.62 254.19,554.64 254.19,548.28 C254.19,541.91 249.32,536.93 243.10,536.93"></path>
  <path fill="#FFFFFF" d="M304.92,543.79 C304.92,539.77 301.78,536.94 297.52,536.94 L297.44,536.94 C293.23,536.94 289.88,540.27 289.88,544.35 L294.53,544.35 C294.53,543.58 294.84,542.86 295.40,542.31 C295.96,541.76 296.71,541.46 297.51,541.46 C299.19,541.46 300.27,542.48 300.27,544.06 C300.27,545.37 299.33,546.27 297.78,547.78 C295.84,549.67 289.69,555.35 289.69,555.35 L289.69,559.07 L304.92,559.07 L304.92,554.55 L296.75,554.55 L301.85,549.80 C303.45,548.25 304.92,546.54 304.92,543.79"></path>
  <path fill="#FFFFFF" d="M326.37,544.18 C327.95,544.18 328.69,542.61 328.69,540.60 C328.69,538.58 327.92,536.94 326.37,536.94 C324.82,536.94 324.05,538.58 324.05,540.60 C324.05,542.61 324.79,544.18 326.37,544.18"></path>
  <path fill="#FFFFFF" d="M317.83,544.18 C319.41,544.18 320.15,542.61 320.15,540.60 C320.15,538.58 319.38,536.94 317.83,536.94 C316.28,536.94 315.51,538.58 315.51,540.60 C315.51,542.61 316.25,544.18 317.83,544.18"></path>
  <path fill="#FFFFFF" d="M322.10,554.95 C316.59,554.95 312.54,551.29 312.54,546.24 L307.69,546.24 C307.69,553.87 313.89,559.62 322.10,559.62 C330.31,559.62 336.51,553.87 336.51,546.24 L331.66,546.24 C331.66,551.29 327.61,554.95 322.10,554.95"></path>
  <path fill="#FFFFFF" d="M219.69,555.09 C216.15,555.00 213.47,552.11 213.47,548.27 C213.47,544.38 216.09,541.53 219.70,541.46 C222.01,541.50 223.94,542.65 225.02,544.66 L229.91,544.66 C229.64,542.39 228.09,540.48 226.24,539.09 C224.35,537.68 222.09,536.93 219.70,536.93 C216.69,536.93 213.89,538.11 211.83,540.24 C209.77,542.38 208.63,545.26 208.63,548.36 C208.63,551.41 209.77,554.25 211.84,556.35 C213.91,558.46 216.70,559.62 219.70,559.62 C222.69,559.62 225.48,558.46 227.54,556.35 C228.76,555.11 229.75,553.66 229.95,551.88 L225.01,551.88 C223.92,553.87 221.94,555.03 219.69,555.09"></path>
  <path fill="#FFFFFF" d="M226.74,597.21 C225.14,596.55 223.85,595.58 222.89,594.29 C221.93,593.00 221.43,591.45 221.38,589.64 L228.56,589.64 C228.66,590.66 229.02,591.44 229.62,591.98 C230.23,592.53 231.01,592.79 231.99,592.79 C232.99,592.79 233.77,592.56 234.36,592.10 C234.93,591.64 235.22,591.00 235.22,590.19 C235.22,589.50 234.99,588.94 234.53,588.49 C234.07,588.05 233.51,587.68 232.84,587.39 C232.16,587.10 231.21,586.77 229.98,586.40 C228.19,585.85 226.73,585.30 225.60,584.74 C224.46,584.19 223.49,583.38 222.68,582.30 C221.86,581.22 221.45,579.81 221.45,578.08 C221.45,575.50 222.39,573.48 224.25,572.02 C226.12,570.56 228.56,569.83 231.55,569.83 C234.61,569.83 237.06,570.56 238.93,572.02 C240.80,573.48 241.80,575.51 241.93,578.11 L234.63,578.11 C234.58,577.22 234.25,576.52 233.65,576.01 C233.04,575.49 232.26,575.24 231.32,575.24 C230.50,575.24 229.84,575.45 229.34,575.89 C228.84,576.32 228.59,576.95 228.59,577.76 C228.59,578.66 229.02,579.35 229.86,579.85 C230.70,580.35 232.01,580.89 233.80,581.47 C235.59,582.08 237.04,582.65 238.16,583.21 C239.28,583.76 240.25,584.56 241.06,585.61 C241.88,586.66 242.28,588.02 242.28,589.68 C242.28,591.26 241.88,592.69 241.08,593.98 C240.28,595.27 239.11,596.29 237.59,597.05 C236.07,597.82 234.26,598.20 232.19,598.20 C230.16,598.20 228.34,597.87 226.74,597.21"></path>
  <path fill="#FFFFFF" d="M267.19,570.23 L267.19,575.63 L259.23,575.63 L259.23,597.92 L252.49,597.92 L252.49,575.63 L244.53,575.63 L244.53,570.23 Z"></path>
  <path fill="#FFFFFF" d="M287.15,589.84 C288.48,588.36 289.14,586.42 289.14,584.00 C289.14,581.56 288.48,579.60 287.15,578.14 C285.82,576.68 284.05,575.95 281.84,575.95 C279.61,575.95 277.82,576.67 276.50,578.12 C275.17,579.57 274.50,581.53 274.50,584.00 C274.50,586.44 275.17,588.40 276.50,589.86 C277.82,591.32 279.61,592.05 281.84,592.05 C284.05,592.05 285.82,591.31 287.15,589.84 M274.68,596.39 C272.51,595.18 270.79,593.49 269.51,591.32 C268.24,589.15 267.60,586.71 267.60,584.00 C267.60,581.29 268.24,578.86 269.51,576.70 C270.79,574.54 272.51,572.86 274.68,571.65 C276.85,570.44 279.24,569.83 281.84,569.83 C284.45,569.83 286.83,570.44 289.00,571.65 C291.17,572.86 292.88,574.54 294.13,576.70 C295.38,578.86 296.01,581.29 296.01,584.00 C296.01,586.71 295.38,589.15 294.12,591.32 C292.85,593.49 291.14,595.18 288.99,596.39 C286.83,597.60 284.45,598.20 281.84,598.20 C279.24,598.20 276.85,597.60 274.68,596.39"></path>
  <path fill="#FFFFFF" d="M306.28,581.57 L310.46,581.57 C311.70,581.57 312.63,581.26 313.24,580.66 C313.86,580.05 314.17,579.20 314.17,578.10 C314.17,577.04 313.86,576.22 313.24,575.61 C312.63,575.01 311.70,574.70 310.46,574.70 L306.28,574.70 Z M313.66,597.92 L307.90,587.47 L306.28,587.47 L306.28,597.92 L299.53,597.92 L299.53,570.23 L310.86,570.23 C313.04,570.23 314.90,570.61 316.44,571.37 C317.98,572.13 319.13,573.18 319.89,574.51 C320.65,575.83 321.04,577.31 321.04,578.94 C321.04,580.79 320.51,582.43 319.48,583.87 C318.44,585.33 316.91,586.35 314.88,586.95 L321.27,597.92 Z"></path>
  <path fill="#FFFFFF" d="M331.79,575.63 L331.79,581.23 L342.06,581.23 L342.06,586.44 L331.79,586.44 L331.79,592.52 L343.24,592.52 L343.24,597.92 L325.04,597.92 L325.04,570.23 L343.24,570.23 L343.24,575.63 Z"></path>
</svg>