<svg xmlns="http://www.w3.org/2000/svg" viewBox="426.6 480.2 1107.4 143.2">
  <path fill="#FFFFFF" d="M1052.14,543.60 C1048.01,542.69 1039.78,540.70 1035.68,539.67 C1028.18,537.77 1024.72,534.63 1024.72,530.08 C1024.72,524.77 1030.86,520.93 1039.33,520.93 C1047.00,520.93 1052.33,524.99 1054.37,532.35 L1074.71,532.35 C1073.89,513.64 1056.03,502.13 1039.33,502.13 C1018.78,502.13 1004.43,514.60 1004.43,532.45 C1004.43,546.46 1013.26,555.09 1029.63,558.79 C1033.50,559.67 1041.14,561.86 1045.01,562.75 C1053.58,564.71 1057.48,567.31 1057.48,571.92 C1057.48,579.06 1049.35,582.25 1041.30,582.25 C1029.66,582.25 1023.20,578.02 1021.56,569.34 L1001.21,569.34 C1003.42,592.81 1024.22,601.45 1041.30,601.45 C1062.77,601.45 1077.77,588.82 1077.77,570.73 C1077.77,556.36 1068.84,547.26 1052.14,543.60"></path>
  <path fill="#FFFFFF" d="M737.83,502.13 C726.55,502.13 717.11,509.31 712.37,517.93 C710.04,513.16 703.37,502.13 686.36,502.13 C673.31,502.13 667.04,509.87 664.21,514.16 L664.21,504.48 L643.87,504.48 L643.87,599.04 L665.07,599.04 L665.07,552.71 C664.69,539.04 666.88,529.65 671.59,524.81 C674.14,522.18 677.53,520.85 681.63,520.85 C696.99,520.85 696.52,538.90 696.52,540.96 L696.52,599.04 L717.72,599.04 L717.72,550.39 C717.72,535.04 719.82,520.85 735.08,520.85 C740.54,520.85 744.85,523.27 747.37,528.32 C749.58,532.77 749.56,539.43 749.56,541.74 L749.56,599.04 L770.75,599.04 L770.75,542.14 C770.75,528.68 768.95,521.41 763.84,514.34 C757.72,506.58 748.24,502.13 737.83,502.13"></path>
  <path fill="#FFFFFF" d="M583.47,581.60 C567.61,581.60 556.10,569.14 556.10,551.58 C556.10,533.78 567.10,521.92 583.47,521.92 C599.59,521.92 610.85,534.06 610.85,551.58 C610.85,569.14 599.33,581.60 583.47,581.60 M583.47,502.08 C556.23,502.08 534.89,523.90 534.89,551.76 C534.89,579.62 556.23,601.44 583.47,601.44 C610.71,601.44 632.05,579.62 632.05,551.76 C632.05,523.90 610.71,502.08 583.47,502.08"></path>
  <path fill="#FFFFFF" d="M854.18,532.12 C854.18,514.50 840.43,502.13 821.80,502.13 L821.41,502.13 C803.00,502.13 788.34,516.69 788.34,534.58 L808.68,534.58 C808.68,531.21 810.04,528.03 812.50,525.64 C814.96,523.25 818.24,521.93 821.73,521.93 C829.09,521.93 833.84,526.39 833.84,533.29 C833.84,539.04 829.71,542.99 822.91,549.58 C814.40,557.85 787.48,582.75 787.48,582.75 L787.48,599.04 L854.18,599.04 L854.18,579.24 L818.41,579.24 L840.73,558.44 C847.76,551.67 854.18,544.16 854.18,532.12"></path>
  <path fill="#FFFFFF" d="M948.12,533.83 C955.04,533.83 958.26,526.95 958.26,518.16 C958.26,509.32 954.92,502.13 948.12,502.13 C941.32,502.13 937.98,509.32 937.98,518.16 C937.98,526.95 941.20,533.83 948.12,533.83"></path>
  <path fill="#FFFFFF" d="M910.74,533.83 C917.66,533.83 920.88,526.95 920.88,518.16 C920.88,509.32 917.54,502.13 910.74,502.13 C903.94,502.13 900.60,509.32 900.60,518.16 C900.60,526.95 903.82,533.83 910.74,533.83"></path>
  <path fill="#FFFFFF" d="M929.43,580.97 C905.30,580.97 887.55,564.94 887.55,542.85 L866.35,542.85 C866.35,576.25 893.47,601.44 929.43,601.44 C965.39,601.44 992.51,576.25 992.51,542.85 L971.31,542.85 C971.31,564.94 953.56,580.97 929.43,580.97"></path>
  <path fill="#FFFFFF" d="M480.98,581.61 C465.46,581.21 453.76,568.54 453.76,551.76 C453.76,534.71 465.23,522.22 481.01,521.93 C491.12,522.12 499.59,527.16 504.34,535.93 L525.73,535.93 C524.57,526.00 517.76,517.64 509.66,511.57 C501.40,505.37 491.50,502.08 481.02,502.08 C467.83,502.09 455.59,507.25 446.56,516.60 C437.53,525.96 432.56,538.57 432.56,552.13 C432.56,565.48 437.55,577.91 446.62,587.14 C455.68,596.35 467.89,601.44 481.02,601.45 C494.13,601.44 506.33,596.35 515.37,587.14 C520.70,581.69 525.04,575.34 525.89,567.55 L504.27,567.55 C499.48,576.27 490.82,581.36 480.98,581.61"></path>
  <path fill="#FFFFFF" d="M1495.92,613.87 C1449.66,617.36 1204.86,617.36 1158.60,613.87 C1144.03,612.77 1132.09,601.78 1130.01,587.32 C1126.60,563.47 1126.60,540.08 1130.01,516.23 C1132.09,501.76 1144.03,490.77 1158.60,489.67 C1204.86,486.18 1449.66,486.18 1495.92,489.67 C1510.49,490.77 1522.42,501.76 1524.50,516.23 C1527.92,540.08 1527.92,563.47 1524.50,587.32 C1522.42,601.78 1510.49,612.77 1495.92,613.87"></path>
  <path fill="#FF2E24" d="M1181.28,586.44 C1177.07,584.72 1173.70,582.15 1171.17,578.77 C1168.65,575.39 1167.32,571.30 1167.19,566.54 L1186.05,566.54 C1186.33,569.23 1187.26,571.29 1188.85,572.71 C1190.44,574.14 1192.51,574.83 1195.06,574.83 C1197.69,574.83 1199.76,574.23 1201.29,573.03 C1202.80,571.81 1203.56,570.13 1203.56,568.00 C1203.56,566.20 1202.96,564.71 1201.75,563.54 C1200.54,562.37 1199.06,561.40 1197.29,560.63 C1195.53,559.87 1193.02,559.02 1189.78,558.05 C1185.08,556.60 1181.25,555.14 1178.28,553.69 C1175.30,552.25 1172.75,550.10 1170.60,547.27 C1168.46,544.43 1167.39,540.73 1167.39,536.18 C1167.39,529.41 1169.85,524.10 1174.75,520.27 C1179.66,516.43 1186.05,514.51 1193.92,514.51 C1201.94,514.51 1208.40,516.43 1213.31,520.27 C1218.22,524.10 1220.84,529.44 1221.18,536.27 L1202.01,536.27 C1201.87,533.93 1201.01,532.08 1199.42,530.74 C1197.83,529.39 1195.79,528.71 1193.31,528.71 C1191.16,528.71 1189.43,529.28 1188.12,530.42 C1186.81,531.56 1186.15,533.21 1186.15,535.34 C1186.15,537.70 1187.26,539.53 1189.47,540.84 C1191.68,542.16 1195.13,543.56 1199.83,545.08 C1204.53,546.68 1208.35,548.20 1211.29,549.65 C1214.22,551.11 1216.76,553.21 1218.90,555.98 C1221.05,558.73 1222.11,562.29 1222.11,566.66 C1222.11,570.80 1221.06,574.56 1218.96,577.95 C1216.85,581.33 1213.79,584.02 1209.79,586.03 C1205.78,588.04 1201.04,589.03 1195.58,589.03 C1190.26,589.03 1185.49,588.18 1181.28,586.44"></path>
  <path fill="#FF2E24" d="M1287.55,515.56 L1287.55,529.75 L1266.65,529.75 L1266.65,588.31 L1248.93,588.31 L1248.93,529.75 L1228.03,529.75 L1228.03,515.56 Z"></path>
  <path fill="#FF2E24" d="M1339.99,567.07 C1343.48,563.20 1345.22,558.09 1345.22,551.73 C1345.22,545.31 1343.48,540.17 1339.99,536.34 C1336.50,532.50 1331.85,530.58 1326.05,530.58 C1320.17,530.58 1315.49,532.48 1312.00,536.28 C1308.52,540.09 1306.77,545.23 1306.77,551.73 C1306.77,558.15 1308.52,563.29 1312.00,567.12 C1315.49,570.96 1320.17,572.87 1326.05,572.87 C1331.85,572.87 1336.50,570.93 1339.99,567.07 M1307.24,584.28 C1301.54,581.10 1297.01,576.65 1293.66,570.96 C1290.31,565.25 1288.64,558.85 1288.64,551.73 C1288.64,544.61 1290.31,538.22 1293.66,532.55 C1297.01,526.88 1301.54,522.47 1307.24,519.29 C1312.94,516.11 1319.21,514.52 1326.05,514.52 C1332.89,514.52 1339.16,516.11 1344.86,519.29 C1350.56,522.47 1355.05,526.88 1358.34,532.55 C1361.62,538.22 1363.26,544.61 1363.26,551.73 C1363.26,558.85 1361.60,565.25 1358.29,570.96 C1354.97,576.65 1350.48,581.10 1344.81,584.28 C1339.14,587.46 1332.89,589.04 1326.05,589.04 C1319.21,589.04 1312.94,587.46 1307.24,584.28"></path>
  <path fill="#FF2E24" d="M1390.25,548.31 L1401.23,548.31 C1404.48,548.31 1406.92,547.50 1408.54,545.92 C1410.17,544.32 1410.98,542.08 1410.98,539.18 C1410.98,536.42 1410.17,534.25 1408.54,532.65 C1406.92,531.07 1404.48,530.26 1401.23,530.26 L1390.25,530.26 Z M1409.63,588.31 L1394.50,560.85 L1390.25,560.85 L1390.25,588.31 L1372.53,588.31 L1372.53,515.56 L1402.27,515.56 C1408.01,515.56 1412.90,516.55 1416.94,518.56 C1420.98,520.55 1424.00,523.31 1426.01,526.80 C1428.01,530.28 1429.01,534.17 1429.01,538.46 C1429.01,543.30 1427.65,547.61 1424.92,551.41 C1422.19,555.22 1418.16,557.91 1412.84,559.49 L1429.64,588.31 Z"></path>
  <path fill="#FF2E24" d="M1457.24,529.74 L1457.24,544.46 L1484.22,544.46 L1484.22,558.14 L1457.24,558.14 L1457.24,574.10 L1487.33,574.10 L1487.33,588.30 L1439.52,588.30 L1439.52,515.55 L1487.33,515.55 L1487.33,529.74 Z"></path>
</svg>